<svg width="154" height="22" viewBox="0 0 154 22" fill="none" xmlns="http://www.w3.org/2000/svg">
<path d="M37.6453 17.9874C34.5158 17.9874 31.2112 15.942 29.5892 14.4568C27.8159 12.8324 22.9426 7.54756 22.9211 7.52368C19.7255 3.95724 15.4285 0 11.1417 0C5.97869 0 1.47626 3.5752 0.304688 8.31243C0.394625 8.00043 2.03498 3.66116 8.19687 3.66116C11.3264 3.66116 14.631 5.70663 16.253 7.19179C18.0263 8.81623 22.8996 14.101 22.9211 14.1249C26.1166 17.6906 30.4137 21.6478 34.7005 21.6478C39.8635 21.6478 44.3659 18.0726 45.5375 13.3354C45.4476 13.6474 43.8072 17.9866 37.6453 17.9866V17.9874Z" fill="#00ACE5"/>
<path d="M22.9212 14.1258C22.9101 14.1131 21.5069 12.5913 19.9334 10.931C19.0834 11.9403 17.8577 13.3156 16.4489 14.55C13.8241 16.851 12.1176 17.3333 11.1419 17.3333C7.46001 17.3333 4.45706 14.4131 4.45706 10.8244C4.45706 7.23566 7.45682 4.33777 11.1419 4.31549C11.2756 4.31549 11.4371 4.32902 11.6337 4.36404C10.5266 3.93903 9.35028 3.66125 8.19701 3.66125C2.03751 3.66125 0.395564 7.99814 0.305627 8.31172C0.105855 9.11877 0 9.96004 0 10.8236C0 16.7921 4.92346 21.6479 11.0631 21.6479C13.6227 21.6479 16.4895 20.3355 19.4423 17.748C20.8384 16.5247 22.0489 15.2162 22.9578 14.164C22.9459 14.1513 22.934 14.1377 22.9228 14.125L22.9212 14.1258Z" fill="url(#paint0_linear_529_259)"/>
<path d="M22.9206 7.52289C22.9317 7.53562 24.3349 9.05739 25.9084 10.7176C26.7584 9.70844 27.9841 8.33312 29.3929 7.09867C32.0178 4.79771 33.7242 4.31539 34.7 4.31539C38.3818 4.31539 41.3848 7.23557 41.3848 10.8243C41.3848 14.3931 38.385 17.3109 34.7 17.3332C34.5662 17.3332 34.4047 17.3197 34.2081 17.2847C35.3152 17.7097 36.4915 17.9874 37.6448 17.9874C43.8043 17.9874 45.4463 13.6506 45.5362 13.337C45.736 12.5299 45.8418 11.6887 45.8418 10.8251C45.8426 4.85581 40.8396 0 34.7 0C32.1403 0 29.3531 1.31245 26.4003 3.89993C25.0043 5.12324 23.7937 6.4317 22.8848 7.48389C22.8967 7.49662 22.9086 7.51015 22.9198 7.52289H22.9206Z" fill="url(#paint1_linear_529_259)"/>
<path d="M50.6973 15.1524V6.15869H53.12V15.1524H50.6973Z" fill="white"/>
<path d="M57.0107 10.662C57.0107 12.1591 58.0765 13.021 59.1668 13.021C60.41 13.021 60.9425 12.2474 61.1327 11.6131L63.3652 12.2601C63.0103 13.5917 61.818 15.3427 59.1541 15.3427C56.655 15.3427 54.5498 13.5288 54.5498 10.6747C54.5498 7.82057 56.694 5.96851 59.1294 5.96851C61.7169 5.96851 62.8972 7.54121 63.265 8.88629L61.0706 9.63444C60.9059 9.03831 60.4236 8.25196 59.1549 8.25196C58.1401 8.25196 57.0107 9.02558 57.0107 10.662Z" fill="white"/>
<path d="M66.902 12.0826V15.1524H64.543V6.15869H68.1325C70.01 6.15869 71.2914 7.38916 71.2914 9.12662C71.2914 10.8641 70.01 12.0826 68.1325 12.0826H66.902ZM67.8285 10.1167C68.4501 10.1167 68.9069 9.74902 68.9069 9.14015C68.9069 8.53128 68.4501 8.15084 67.8285 8.15084H66.9148V10.1167H67.8285Z" fill="white"/>
<path d="M75.2764 15.1524V6.15869H78.5364C81.1493 6.15869 83.0523 7.87148 83.0523 10.6619C83.0523 13.4524 81.1493 15.1524 78.5237 15.1524H75.2764ZM78.5109 12.8316C79.6395 12.8316 80.6169 12.1717 80.6169 10.65C80.6169 9.12821 79.6403 8.44294 78.5109 8.44294H77.6482V12.8323H78.5109V12.8316Z" fill="white"/>
<path d="M89.236 13.4524H86.1534L85.6082 15.1525H83.1982L86.3572 6.15875H89.1731L92.3193 15.1525H89.782L89.2368 13.4524H89.236ZM86.775 11.512H88.6271L87.7134 8.61969L86.775 11.512Z" fill="white"/>
<path d="M95.2367 8.70874C95.2367 9.07645 95.4651 9.35581 96.0103 9.45689L97.1389 9.67258C98.8644 10.0148 99.7646 11.0423 99.7646 12.4256C99.7646 13.8089 98.5341 15.3434 96.3398 15.3434C93.8025 15.3434 92.7749 13.7198 92.6611 12.4766L94.8172 12.1088C94.8682 12.7941 95.337 13.4157 96.3398 13.4157C96.9741 13.4157 97.38 13.0607 97.38 12.6039C97.38 12.2235 97.1134 11.9186 96.5555 11.8175L95.4388 11.6019C93.8407 11.297 92.9142 10.295 92.9142 8.89976C92.9142 7.19971 94.4368 5.96924 96.2634 5.96924C98.5468 5.96924 99.447 7.31352 99.6253 8.46838L97.4939 8.86155C97.4429 8.45564 97.1389 7.88498 96.2507 7.88498C95.6545 7.88498 95.2359 8.27816 95.2359 8.70954L95.2367 8.70874Z" fill="white"/>
<path d="M106.574 15.1524V11.7149H103.581V15.1524H101.209V6.15869H103.581V9.58347H106.574V6.15869H108.946V15.1524H106.574Z" fill="white"/>
<path d="M114.536 6.15869C116.312 6.15869 117.339 7.1862 117.339 8.56869C117.339 9.46965 116.807 10.2305 116.07 10.4844C116.895 10.7001 117.618 11.461 117.618 12.6031C117.618 14.0748 116.501 15.1532 114.802 15.1532H110.869V6.15949H114.535L114.536 6.15869ZM114.104 9.71081C114.675 9.71081 115.03 9.38131 115.03 8.86079C115.03 8.34027 114.725 8.0235 114.079 8.0235H113.153V9.71081H114.104ZM114.245 13.2494C114.879 13.2494 115.234 12.8817 115.234 12.3484C115.234 11.8152 114.879 11.4355 114.245 11.4355H113.153V13.2494H114.245Z" fill="white"/>
<path d="M123.183 5.96851C125.657 5.96851 127.8 7.74417 127.8 10.662C127.8 13.5797 125.656 15.3554 123.183 15.3554C120.711 15.3554 118.566 13.5797 118.566 10.662C118.566 7.74417 120.711 5.96851 123.183 5.96851ZM123.183 13.0592C124.236 13.0592 125.352 12.3111 125.352 10.6492C125.352 8.98737 124.236 8.26469 123.183 8.26469C122.131 8.26469 121.015 9.01284 121.015 10.6492C121.015 12.2856 122.131 13.0592 123.183 13.0592Z" fill="white"/>
<path d="M133.825 13.4524H130.743L130.277 15.1524H127.867L130.947 6.15869H133.762L136.909 15.1524H134.371L133.826 13.4524H133.825ZM131.364 11.5119H133.216L132.303 8.61963L131.364 11.5119Z" fill="white"/>
<path d="M137.864 15.1524V6.15869H141.657C143.483 6.15869 144.676 7.37643 144.676 9.05101C144.676 10.2687 144.003 11.1697 143.014 11.5629L144.714 15.1524H142.139L140.718 11.8924H140.223V15.1524H137.864ZM141.213 10.0658C141.924 10.0658 142.292 9.65987 142.292 9.08921C142.292 8.51855 141.924 8.12537 141.213 8.12537H140.224V10.0666H141.213V10.0658Z" fill="white"/>
<path d="M146.225 15.1524V6.15869H149.485C152.098 6.15869 154.001 7.87148 154.001 10.6619C154.001 13.4524 152.098 15.1524 149.472 15.1524H146.225ZM149.46 12.8316C150.589 12.8316 151.566 12.1717 151.566 10.65C151.566 9.12821 150.589 8.44294 149.46 8.44294H148.597V12.8323H149.46V12.8316Z" fill="white"/>
<defs>
<linearGradient id="paint0_linear_529_259" x1="16.9185" y1="20.2328" x2="1.84012" y2="4.61874" gradientUnits="userSpaceOnUse">
<stop offset="0.22" stop-color="#FF0079"/>
<stop offset="0.89" stop-color="#592489"/>
</linearGradient>
<linearGradient id="paint1_linear_529_259" x1="28.9137" y1="1.42546" x2="43.9921" y2="17.0387" gradientUnits="userSpaceOnUse">
<stop offset="0.21" stop-color="#FF4B00"/>
<stop offset="0.68" stop-color="#FFAB00"/>
</linearGradient>
</defs>
</svg>
